<?xml version="1.0" standalone="no"?>
<!DOCTYPE svg PUBLIC "-//W3C//DTD SVG 20010904//EN"
 "http://www.w3.org/TR/2001/REC-SVG-20010904/DTD/svg10.dtd">
<svg version="1.0" xmlns="http://www.w3.org/2000/svg"
 width="500.000000pt" height="500.000000pt" viewBox="0 0 500.000000 500.000000"
 preserveAspectRatio="xMidYMid meet">

<g transform="translate(0.000000,500.000000) scale(0.100000,-0.100000)"
fill="#000000" stroke="none">
<path d="M2230 4155 c-8 -2 -50 -7 -93 -10 l-79 -7 6 -31 c3 -18 8 -75 11
-127 l5 -95 -37 120 c-20 66 -38 122 -39 124 -2 2 -25 -2 -51 -10 -26 -7 -51
-13 -54 -12 -3 1 -12 -24 -19 -55 -7 -31 -15 -61 -17 -65 -3 -5 -19 4 -37 20
-60 56 -58 55 -125 37 -41 -12 -58 -21 -52 -28 5 -6 26 -71 47 -143 41 -143
39 -141 105 -121 42 12 47 26 29 72 -13 36 0 32 40 -9 19 -19 37 -35 40 -35 4
0 13 26 20 58 l13 57 13 -30 c7 -16 13 -36 14 -42 0 -16 14 -16 60 -3 19 6 53
12 75 15 103 10 249 19 340 19 l100 1 5 29 5 29 17 -36 c15 -31 24 -37 70 -47
118 -25 135 -25 172 3 46 36 55 85 25 133 l-22 36 24 -4 c33 -4 37 31 10 76
-19 30 -28 35 -103 50 l-83 16 -40 -28 c-50 -35 -63 -82 -34 -123 25 -36 24
-42 -6 -35 -18 5 -25 2 -25 -9 0 -8 -9 -15 -20 -15 -17 0 -20 7 -20 39 0 59
11 101 26 101 21 0 19 76 -2 84 -9 3 -49 6 -90 6 l-74 0 0 -40 c0 -22 5 -40
10 -40 6 0 10 -30 10 -69 0 -60 -2 -69 -20 -74 -15 -4 -20 0 -20 14 0 17 -5
18 -37 13 l-38 -6 -1 46 c-1 41 1 46 20 46 37 0 47 14 44 61 l-3 44 -50 2
c-27 0 -57 0 -65 -2z m90 -45 c0 -27 -3 -30 -30 -30 -16 0 -30 5 -30 10 0 6
-13 10 -30 10 -20 0 -30 5 -30 15 0 10 16 15 58 18 31 2 58 4 60 5 1 1 2 -11
2 -28z m210 4 c0 -8 -7 -14 -15 -14 -10 0 -15 -10 -15 -27 0 -16 -3 -58 -7
-95 -5 -60 -4 -68 11 -68 11 0 16 -6 14 -17 -2 -10 -7 -17 -11 -15 -4 1 -29 2
-57 2 -36 0 -50 4 -50 14 0 8 7 16 15 20 12 4 15 25 15 96 0 53 -4 90 -10 90
-5 0 -10 8 -10 18 0 15 8 17 60 14 43 -3 60 -8 60 -18z m-370 -26 c0 -18 3
-44 7 -56 5 -22 10 -23 49 -17 36 5 44 3 44 -9 0 -10 -9 -16 -22 -16 -13 0
-33 -3 -46 -6 -22 -6 -23 -10 -17 -57 8 -53 0 -67 -41 -67 -20 0 -22 7 -28 98
-4 53 -9 112 -13 130 -5 31 -4 32 31 32 34 0 36 -2 36 -32z m515 -10 c-4 -18
-9 -41 -11 -50 -4 -13 7 -19 53 -28 32 -6 64 -14 71 -18 25 -13 45 -58 38 -85
-6 -26 -62 -74 -73 -63 -3 3 -1 28 4 55 l10 50 -49 11 c-27 5 -55 10 -63 10
-21 0 -54 61 -48 91 4 23 44 58 66 59 5 0 6 -15 2 -32z m-653 -99 l36 -120
-25 -10 c-13 -5 -28 -9 -32 -9 -5 0 -18 33 -30 73 -12 39 -28 94 -36 120 -14
47 -14 48 8 57 12 5 27 9 32 9 6 1 27 -53 47 -120z m761 111 c20 0 57 -34 57
-54 0 -20 -47 -8 -53 14 -3 11 -16 20 -33 22 -15 2 -30 9 -32 17 -4 10 1 12
19 8 13 -4 32 -7 42 -7z m-543 -35 c0 -9 -9 -15 -25 -15 -16 0 -25 6 -25 15 0
9 9 15 25 15 16 0 25 -6 25 -15z m510 -15 c8 -5 12 -11 9 -15 -9 -8 -69 7 -63
16 7 12 35 11 54 -1z m-931 -62 l56 -51 11 39 12 39 12 -30 c7 -17 9 -49 6
-73 -11 -83 -14 -83 -117 12 -52 48 -95 91 -97 96 -3 8 18 16 47 19 7 0 39
-22 70 -51z m421 -33 c0 -8 -9 -15 -20 -15 -11 0 -20 7 -20 15 0 8 9 15 20 15
11 0 20 -7 20 -15z m-487 -43 c43 -44 67 -109 45 -123 -33 -21 -44 -9 -70 76
-14 47 -22 85 -19 85 4 0 24 -17 44 -38z m587 8 c0 -24 -4 -30 -22 -30 -13 0
-40 -3 -60 -6 -31 -5 -38 -4 -38 10 0 10 9 16 25 16 15 0 25 6 25 14 0 16 15
24 48 25 18 1 22 -4 22 -29z m302 3 c4 -2 5 -10 2 -17 -4 -9 6 -16 30 -20 38
-7 50 -26 17 -26 -50 0 -82 14 -96 41 -8 15 -15 31 -15 34 0 5 47 -4 62 -12z
m79 7 c5 0 9 -7 9 -16 0 -11 -5 -14 -16 -10 -9 3 -22 6 -30 6 -8 0 -11 6 -7
16 3 8 12 13 20 10 8 -3 19 -6 24 -6z"/>
<path d="M2910 4045 c-12 -36 -7 -55 13 -55 38 -1 38 -16 2 -113 -20 -53 -34
-101 -31 -106 8 -12 96 -42 106 -36 4 2 22 45 40 95 18 50 36 93 41 95 4 3 19
0 33 -6 30 -14 31 -14 50 33 l15 36 -122 46 c-68 25 -126 46 -129 46 -4 0 -12
-16 -18 -35z m198 -58 c30 -10 42 -30 24 -40 -5 -4 -183 57 -200 68 -1 1 0 9
4 18 5 14 14 13 72 -10 37 -14 82 -30 100 -36z m-72 -56 c8 -4 2 -31 -19 -86
-16 -44 -31 -81 -32 -83 -2 -3 -65 19 -65 23 0 2 14 40 31 84 32 85 38 89 85
62z"/>
<path d="M3135 3839 c-41 -72 -74 -133 -73 -134 2 -2 55 -33 118 -70 63 -37
136 -85 161 -106 l46 -38 29 30 c36 38 52 25 35 -31 l-12 -41 43 -39 c24 -22
46 -39 50 -40 8 0 28 65 28 91 0 11 12 19 34 23 48 9 86 61 86 118 0 43 -2 46
-91 122 -75 65 -93 76 -103 65 -7 -8 -41 -48 -76 -89 -74 -89 -90 -104 -67
-68 17 27 17 28 -13 43 -35 18 -36 20 -10 63 20 32 20 32 51 17 29 -15 32 -15
44 2 17 22 39 72 34 77 -3 2 -183 106 -231 132 -3 2 -41 -55 -83 -127z m123
75 l22 -15 -25 -43 c-14 -24 -25 -45 -25 -48 0 -3 16 -16 36 -28 26 -15 34
-24 26 -32 -7 -7 -21 -4 -45 11 l-35 21 -31 -50 c-31 -50 -31 -50 -57 -34 -15
10 -23 23 -19 32 12 31 116 202 123 202 4 0 18 -7 30 -16z m112 -65 c43 -26
48 -33 40 -50 -6 -10 -15 -19 -21 -19 -22 0 -48 21 -43 34 3 8 -3 19 -15 26
-12 6 -21 17 -21 25 0 20 2 20 60 -16z m-66 -32 c6 -9 8 -19 4 -22 -10 -11
-46 18 -41 32 7 17 23 12 37 -10z m225 -76 l25 -19 -83 -96 c-79 -92 -85 -96
-105 -83 -11 8 -21 20 -21 26 0 12 145 191 155 191 3 0 16 -9 29 -19z m-283
-12 c10 -17 -13 -36 -27 -22 -12 12 -4 33 11 33 5 0 12 -5 16 -11z m382 -72
c44 -40 15 -147 -40 -147 -22 0 -108 50 -108 63 0 11 10 8 39 -12 l28 -20 36
43 36 43 -26 20 c-16 11 -24 24 -19 31 8 14 20 9 54 -21z m-398 13 c9 -5 19
-5 26 1 16 13 67 -18 57 -35 -19 -33 -25 -35 -51 -19 -15 9 -37 22 -50 30 -12
8 -20 18 -17 23 8 12 16 12 35 0z m333 -66 c-19 -29 -25 -30 -48 -4 -17 19
-17 21 0 40 16 17 19 18 41 4 22 -15 22 -17 7 -40z m-50 -111 c15 -12 21 -27
19 -45 -4 -33 -12 -34 -42 -10 -17 13 -20 24 -15 45 8 32 10 32 38 10z"/>
<path d="M1313 3847 c-40 -31 -42 -34 -43 -87 l0 -55 -22 32 c-13 18 -25 33
-29 33 -9 0 -89 -61 -89 -69 0 -4 33 -52 74 -107 41 -54 73 -100 71 -102 -1
-2 -19 0 -39 3 -33 7 -36 10 -36 40 0 27 -8 39 -37 63 -34 25 -43 28 -84 23
-42 -5 -53 -13 -123 -88 l-76 -81 92 -87 c51 -48 82 -81 69 -74 -22 10 -27 9
-47 -16 l-21 -27 -35 23 -35 23 19 32 19 32 -46 27 c-26 15 -48 25 -49 23 -17
-19 -148 -230 -145 -232 10 -10 238 -156 247 -158 5 -2 46 51 90 117 45 66 96
137 113 158 l33 37 -28 29 c-39 40 -27 53 30 34 l45 -15 57 54 c31 30 69 62
84 72 23 15 26 22 21 53 -6 33 -4 36 13 29 43 -18 54 -16 98 16 25 18 45 36
46 39 0 4 -38 24 -85 45 l-85 39 0 40 c0 51 -11 115 -19 114 -3 0 -25 -15 -48
-32z m37 -99 c0 -46 3 -94 6 -108 5 -23 3 -22 -25 10 -26 30 -30 43 -31 94 0
44 4 62 18 72 9 7 20 14 25 14 4 0 7 -37 7 -82z m10 -214 c0 -6 -11 -17 -25
-24 -23 -12 -27 -12 -39 6 -8 10 -42 55 -75 99 l-61 80 27 22 27 22 73 -97
c40 -53 73 -102 73 -108z m130 91 c-35 -42 -90 -23 -90 31 l0 34 51 -25 c41
-21 48 -29 39 -40z m-343 -47 c36 -40 36 -59 -1 -111 -19 -26 -37 -44 -40 -39
-3 5 4 22 15 37 12 14 18 30 13 33 -5 4 -24 21 -42 37 l-34 30 -23 -30 c-21
-25 -25 -27 -31 -11 -4 12 2 27 22 47 36 37 90 40 121 7z m-53 -80 c8 -13 6
-22 -9 -37 -17 -20 -19 -20 -37 -5 -21 20 -23 35 -6 52 16 16 38 12 52 -10z
m9 -125 l47 -49 -23 -22 -23 -22 -93 86 -92 87 22 23 22 23 46 -38 c25 -22 67
-61 94 -88z m155 89 c22 -15 -30 -54 -62 -46 -31 7 -32 11 -9 36 17 19 49 23
71 10z m-369 -106 c16 -19 -7 -58 -29 -51 -9 3 -22 -6 -32 -23 -14 -22 -18
-24 -23 -10 -7 19 41 98 60 98 7 0 18 -6 24 -14z m-15 -95 c8 -13 -20 -45 -33
-37 -8 5 -8 13 -1 27 11 20 25 25 34 10z m190 -19 c3 -5 -7 -26 -21 -48 -35
-53 -40 -57 -52 -49 -8 4 -7 13 4 27 10 15 11 25 4 34 -7 9 -5 20 6 38 14 21
21 24 35 16 11 -6 21 -14 24 -18z m-134 1 c0 -5 -9 -23 -20 -41 -11 -18 -20
-34 -20 -36 0 -2 20 -17 45 -33 25 -15 45 -31 45 -34 0 -4 -8 -17 -18 -29
l-18 -22 -102 67 c-56 36 -102 70 -102 75 0 4 8 17 18 29 l17 21 44 -29 45
-30 23 34 c22 32 43 46 43 28z m40 -52 c0 -3 -5 -13 -10 -21 -12 -19 -33 0
-25 23 6 14 35 13 35 -2z"/>
<path d="M1543 3832 l-91 -47 15 -30 c9 -16 17 -31 18 -33 6 -6 185 89 185 98
0 14 -22 60 -29 59 -3 0 -47 -21 -98 -47z m97 -1 c0 -12 -139 -75 -147 -66 -5
4 -3 10 2 12 6 2 37 18 70 36 57 31 75 36 75 18z"/>
<path d="M2275 3544 c-318 -35 -605 -164 -825 -371 -270 -254 -420 -583 -437
-953 -21 -481 213 -941 612 -1205 417 -276 936 -309 1380 -87 373 186 623 499
731 917 28 105 29 120 28 325 0 208 -1 219 -31 330 -110 413 -373 733 -747
911 -121 57 -199 83 -326 109 -94 19 -306 32 -385 24z m225 -24 c630 -52 1138
-522 1236 -1143 19 -114 15 -400 -5 -450 -22 -56 -32 -18 -31 121 1 76 1 208
1 295 l-1 157 -25 0 c-22 0 -25 4 -25 34 0 41 -8 66 -22 66 -5 0 -21 14 -35
30 -14 17 -42 39 -63 50 -50 25 -70 76 -70 176 0 48 -4 73 -10 69 -5 -3 -10
-37 -10 -75 0 -92 -28 -162 -83 -211 -24 -20 -52 -54 -62 -75 -11 -21 -28 -46
-37 -56 -11 -11 -18 -33 -18 -57 0 -25 -5 -41 -15 -45 -11 -4 -15 -22 -15 -76
l0 -70 -54 0 -54 0 -12 48 c-14 60 -113 207 -166 248 -22 16 -101 56 -175 87
-74 32 -141 61 -148 66 -10 6 -16 33 -19 76 -4 56 -1 69 16 88 40 43 54 114
27 137 -23 19 -18 60 11 82 21 17 25 27 22 67 -2 38 -7 47 -24 49 -17 2 -23
12 -28 43 -15 95 -104 206 -182 229 -121 34 -202 14 -274 -67 -40 -46 -80
-134 -80 -178 0 -18 -5 -25 -20 -25 -37 0 -34 -91 4 -106 23 -9 29 -54 11 -74
-38 -42 -28 -105 30 -185 50 -69 87 -157 89 -207 l1 -51 -90 -33 c-137 -51
-249 -110 -284 -149 l-30 -35 -3 142 -3 142 -32 8 -33 9 0 124 c0 80 -4 126
-11 131 -6 4 -51 9 -100 12 l-88 5 -61 -39 -60 -39 0 -101 c0 -98 -1 -101 -25
-112 l-25 -12 0 -181 c0 -172 -1 -181 -20 -186 -17 -5 -20 -14 -20 -69 0 -34
-4 -65 -9 -69 -6 -3 -66 -2 -135 1 l-126 7 0 61 c0 170 53 375 145 561 106
215 261 394 451 522 230 155 413 214 744 241 8 1 67 -3 130 -8z m-156 -72 c-2
-13 -2 -17 2 -10 7 14 62 16 97 3 64 -25 145 -152 117 -186 -7 -8 -24 -15 -38
-15 -38 0 -105 22 -126 42 -10 9 -23 15 -27 12 -5 -3 -6 1 -3 9 3 8 -2 20 -11
27 -8 7 -16 24 -16 39 -1 14 -5 0 -9 -32 -4 -32 -9 -59 -11 -61 -2 -2 -19 -7
-36 -11 -32 -6 -33 -5 -28 22 2 15 7 48 10 73 l6 45 -27 -54 c-25 -50 -28 -53
-41 -35 -23 31 -26 60 -9 92 17 33 71 59 80 39 2 -7 5 -4 5 6 1 13 10 17 35
17 30 0 34 -3 30 -22z m113 -278 c62 -22 88 -41 109 -83 11 -20 12 -32 4 -46
-8 -16 -5 -23 16 -39 24 -17 26 -23 20 -56 -4 -21 -18 -48 -32 -61 -13 -12
-24 -28 -24 -35 0 -7 -3 -10 -7 -6 -4 3 -25 -11 -47 -33 -55 -52 -119 -75
-194 -69 -34 2 -71 12 -87 22 -39 26 -75 114 -90 220 -12 83 -11 94 6 127 27
54 84 78 187 79 58 0 99 -6 139 -20z m-814 -256 l37 -7 -2 -116 -2 -116 -5
100 c-5 80 -9 100 -21 100 -12 0 -16 -19 -18 -97 -1 -56 -7 -98 -13 -98 -6 0
-7 33 -3 88 5 76 4 91 -11 106 -32 32 -45 4 -45 -100 0 -77 -3 -94 -15 -94
-12 0 -15 20 -15 120 l0 120 38 0 c20 0 54 -3 75 -6z m-133 -114 l0 -110 -50
0 -50 0 0 79 0 80 43 30 c23 17 45 30 50 31 4 0 7 -49 7 -110z m90 35 c0 -8
-7 -15 -15 -15 -8 0 -15 7 -15 15 0 8 7 15 15 15 8 0 15 -7 15 -15z m60 -10
c0 -8 -4 -15 -10 -15 -5 0 -10 7 -10 15 0 8 5 15 10 15 6 0 10 -7 10 -15z
m897 -111 c-1 0 -24 -14 -52 -31 -68 -43 -155 -83 -181 -83 -31 0 -66 43 -62
76 3 28 5 29 74 35 84 8 143 35 181 86 l28 37 7 -60 c3 -32 5 -59 5 -60z
m-957 66 c0 -11 -7 -20 -15 -20 -8 0 -15 9 -15 20 0 11 7 20 15 20 8 0 15 -9
15 -20z m60 0 c0 -11 -4 -20 -10 -20 -5 0 -10 9 -10 20 0 11 5 20 10 20 6 0
10 -9 10 -20z m-60 -50 c0 -11 -7 -20 -15 -20 -8 0 -15 9 -15 20 0 11 7 20 15
20 8 0 15 -9 15 -20z m56 -17 c-11 -11 -19 6 -11 24 8 17 8 17 12 0 3 -10 2
-21 -1 -24z m1804 18 c0 -5 3 -16 6 -25 4 -12 0 -16 -16 -16 -16 0 -20 4 -16
16 3 9 6 20 6 25 0 5 5 9 10 9 6 0 10 -4 10 -9z m-1860 -41 c0 -5 -7 -10 -16
-10 -8 0 -12 5 -9 10 3 6 10 10 16 10 5 0 9 -4 9 -10z m60 -10 c0 -5 -4 -10
-10 -10 -5 0 -10 5 -10 10 0 6 5 10 10 10 6 0 10 -4 10 -10z m-50 -25 c47 -3
97 -8 113 -11 l27 -6 -2 -166 c-2 -121 -6 -166 -15 -170 -10 -3 -13 32 -13
153 l0 156 -22 -3 c-23 -3 -23 -6 -26 -155 -2 -127 -5 -153 -17 -153 -13 0
-15 25 -15 155 0 135 -2 156 -16 162 -40 15 -45 -5 -47 -161 -2 -108 -5 -150
-14 -153 -9 -3 -13 34 -15 153 -3 134 -5 158 -20 167 -12 8 -21 7 -32 -2 -13
-11 -16 -39 -16 -167 0 -130 -2 -154 -15 -154 -13 0 -15 27 -15 186 l0 186 38
-6 c20 -3 75 -8 122 -11z m1908 -23 c2 -24 -1 -32 -12 -32 -12 0 -16 10 -16
36 0 45 24 42 28 -4z m-2088 -151 c0 -177 0 -179 -22 -185 -49 -13 -48 -16
-48 164 l0 169 28 15 c15 8 30 15 35 16 4 0 7 -80 7 -179z m1993 147 c-3 -16
-12 -28 -19 -28 -18 0 -18 10 2 38 20 28 24 26 17 -10z m47 -10 c0 -21 -16
-24 -23 -5 -2 6 -2 20 1 30 4 15 7 16 13 5 5 -7 9 -21 9 -30z m110 -10 c0 -15
-28 -9 -34 8 -11 30 -6 37 14 19 11 -10 20 -22 20 -27z m-217 -6 c-2 -10 -13
-24 -25 -31 -22 -14 -19 -2 10 32 19 22 21 21 15 -1z m-1833 -17 c0 -16 -6
-25 -15 -25 -9 0 -15 9 -15 25 0 16 6 25 15 25 9 0 15 -9 15 -25z m95 -1 c0
-10 -8 -20 -17 -22 -18 -3 -26 27 -11 42 12 11 28 0 28 -20z m85 -14 c0 -31
-16 -41 -26 -15 -8 19 2 45 16 45 5 0 10 -13 10 -30z m1910 -30 l0 -40 -115 0
-115 0 0 40 0 40 115 0 115 0 0 -40z m-1330 -35 c-45 -46 -66 -61 -68 -50 -6
25 30 76 68 96 65 35 65 19 0 -46z m615 25 c37 -26 47 -39 59 -83 76 -284 75
-377 -7 -576 l-30 -73 -44 5 c-31 3 -54 14 -75 33 -39 38 -34 78 20 160 38 57
155 174 174 174 4 0 8 7 8 15 0 8 -3 15 -7 15 -14 0 -100 -55 -131 -83 l-32
-31 -30 36 c-62 75 -184 101 -277 58 l-43 -19 0 27 c0 43 28 149 51 194 26 51
103 134 144 156 78 40 154 38 220 -8z m465 0 c0 -16 -5 -30 -11 -30 -6 0 -29
-14 -50 -31 l-39 -31 0 29 c1 21 11 36 43 60 23 18 45 33 50 33 4 0 7 -13 7
-30z m-1840 -20 c0 -29 -4 -40 -15 -40 -11 0 -15 11 -15 40 0 29 4 40 15 40
11 0 15 -11 15 -40z m98 -2 c-2 -31 -8 -44 -20 -46 -15 -3 -18 4 -18 42 0 40
3 46 21 46 18 0 20 -5 17 -42z m82 -18 c0 -29 -4 -40 -15 -40 -11 0 -15 11
-15 40 0 29 4 40 15 40 11 0 15 -11 15 -40z m1970 -150 l0 -140 -134 0 c-79 0
-137 -4 -141 -10 -4 -6 43 -10 134 -10 134 0 141 -1 141 -20 0 -19 -7 -20
-160 -20 l-160 0 0 45 0 45 135 0 c83 0 135 4 135 10 0 6 -52 10 -135 10 -128
0 -135 1 -135 20 0 19 7 20 135 20 83 0 135 4 135 10 0 6 -52 10 -135 10 -128
0 -135 1 -135 20 0 19 7 20 135 20 83 0 135 4 135 10 0 6 -52 10 -135 10
l-135 0 0 25 0 25 140 0 c87 0 140 4 140 10 0 6 -53 10 -140 10 -133 0 -140 1
-140 20 0 19 7 20 160 20 l160 0 0 -140z m-2150 75 c0 -33 -4 -45 -15 -45 -11
0 -15 12 -15 45 0 33 4 45 15 45 11 0 15 -12 15 -45z m1763 -1272 c-27 -23
-51 -42 -55 -43 -5 0 -8 290 -8 644 l0 643 53 37 52 37 3 -638 2 -638 -47 -42z
m-1663 1267 c0 -33 -3 -40 -20 -40 -17 0 -20 7 -20 40 0 33 3 40 20 40 17 0
20 -7 20 -40z m80 -16 c0 -24 -4 -34 -12 -32 -15 5 -22 42 -14 64 10 25 26 5
26 -32z m-180 -64 c0 -20 -5 -30 -15 -30 -10 0 -15 10 -15 30 0 20 5 30 15 30
10 0 15 -10 15 -30z m98 -2 c-5 -34 -38 -37 -38 -4 0 20 5 26 21 26 15 0 20
-5 17 -22z m82 -3 c0 -16 -6 -25 -15 -25 -9 0 -15 9 -15 25 0 16 6 25 15 25 9
0 15 -9 15 -25z m-280 -587 c0 -310 -4 -538 -9 -533 -5 6 -29 34 -55 63 l-46
53 2 466 3 467 45 12 c25 7 48 12 53 13 4 1 7 -243 7 -541z m289 513 c-7 -19
-19 -31 -32 -33 -19 -3 -23 -11 -27 -58 -3 -30 -15 -75 -27 -100 l-21 -45 -1
91 c-1 55 -6 95 -13 102 -16 16 -53 15 -66 0 -5 -8 -13 -116 -17 -253 -8 -292
-8 -312 0 -597 4 -126 4 -228 -1 -228 -4 0 -21 12 -36 27 l-28 27 0 541 c0
298 3 545 7 548 3 4 66 7 139 7 l133 0 -10 -29z m1491 -592 c0 -542 -1 -583
-17 -595 -10 -7 -21 -14 -25 -14 -5 0 -8 77 -8 170 0 142 2 172 15 176 9 4 15
19 15 40 0 32 -2 34 -35 34 -28 0 -35 -4 -35 -20 0 -16 -7 -20 -37 -20 l-38 0
1 123 c2 238 16 503 31 577 23 118 18 110 79 110 l54 0 0 -581z m-1621 537 c7
-8 11 -36 9 -63 -3 -46 -4 -48 -33 -48 -29 0 -30 2 -33 48 -3 49 9 77 33 77 7
0 18 -6 24 -14z m98 -13 c-10 -22 -13 -24 -15 -9 -2 10 2 22 10 27 19 12 19
12 5 -18z m1026 -27 c18 -7 50 -32 72 -55 l39 -41 -19 -37 c-28 -51 -174 -203
-238 -247 -65 -45 -233 -106 -291 -106 -111 0 -260 44 -355 105 -37 23 -75 45
-86 49 -18 7 -16 11 22 45 46 41 129 71 199 71 44 0 88 11 255 64 108 34 120
40 187 101 71 63 74 65 128 65 30 0 69 -6 87 -14z m967 -56 c0 -19 -7 -20
-160 -20 -153 0 -160 1 -160 20 0 19 7 20 160 20 153 0 160 -1 160 -20z
m-2380 -367 c-1 -377 -1 -378 -20 -354 -18 21 -20 39 -20 192 l0 169 -80 0
c-79 0 -81 1 -91 28 -16 41 -46 188 -54 270 l-7 72 136 0 136 0 0 -377z m300
296 c0 -53 -15 -79 -45 -79 -24 0 -25 3 -25 60 l0 60 35 0 c34 0 35 -1 35 -41z
m2080 6 l0 -25 -160 0 -160 0 0 25 0 25 160 0 160 0 0 -25z m0 -60 c0 -13 -24
-15 -160 -15 -136 0 -160 2 -160 15 0 13 24 15 160 15 136 0 160 -2 160 -15z
m-1898 -34 c20 -19 -38 -64 -74 -57 -48 9 -45 -55 4 -69 33 -10 156 -73 203
-105 37 -24 89 -54 238 -135 l59 -32 -39 -10 c-21 -6 -74 -21 -118 -33 -96
-28 -185 -29 -305 -5 -47 10 -110 20 -140 24 -66 7 -80 27 -80 116 0 126 46
276 95 312 24 18 138 14 157 -6z m-212 -8 c-1 -5 -9 -24 -20 -43 l-19 -35 -1
43 c0 35 3 42 20 42 11 0 20 -3 20 -7z m2110 -12 c0 -23 -55 -31 -212 -31
l-108 0 0 25 0 25 160 0 c149 0 160 -1 160 -19z m40 -57 c0 -19 -65 -218 -80
-242 -6 -12 -9 27 -10 121 l0 137 45 0 c35 0 45 -4 45 -16z m-163 -6 c-20 -15
-197 -12 -197 3 0 5 48 9 107 9 88 0 104 -2 90 -12z m53 -88 l0 -100 -35 0
-35 0 0 73 c0 69 1 73 32 99 18 15 34 28 36 28 1 0 2 -45 2 -100z m-90 35 c0
-12 -16 -15 -80 -15 -64 0 -80 3 -80 15 0 12 16 15 80 15 64 0 80 -3 80 -15z
m-2 -47 c-3 -9 -31 -14 -81 -16 -64 -2 -77 0 -77 13 0 12 15 15 81 15 60 0 80
-3 77 -12z m-2278 -175 c-1 -127 -2 -136 -16 -118 -22 28 -79 143 -94 188 -18
57 -10 67 55 67 l55 0 0 -137z m2280 112 c0 -25 -1 -25 -80 -25 -79 0 -80 0
-80 25 0 25 1 25 80 25 79 0 80 0 80 -25z m-40 -203 l0 -148 -56 -67 c-30 -37
-57 -67 -60 -67 -2 0 -4 97 -4 215 l0 215 60 0 60 0 0 -148z m130 106 c0 -41
-45 -138 -91 -197 -19 -24 -19 -23 -19 108 l0 131 55 0 55 0 0 -42z m-1969
-293 c-2 -99 -5 -182 -7 -184 -2 -2 -10 -1 -19 2 -13 5 -15 33 -15 187 l0 181
23 -3 22 -3 -4 -180z m-51 105 l0 -70 -30 0 -30 0 0 70 0 70 30 0 30 0 0 -70z
m128 60 c8 0 12 -20 12 -65 l0 -65 -35 0 -35 0 0 71 c0 69 1 71 23 65 12 -3
28 -6 35 -6z m96 -16 c13 -5 14 -9 5 -21 -7 -7 -27 -58 -45 -111 l-33 -97 0
118 -1 117 29 0 c16 0 37 -3 45 -6z m1350 0 c16 -6 23 -44 8 -44 -12 0 -32 23
-32 37 0 15 2 15 24 7z m-24 -244 c0 -104 -2 -190 -4 -190 -2 0 -11 -3 -20 -6
-14 -5 -16 13 -16 170 l0 176 -30 0 c-23 0 -30 4 -30 20 0 17 7 20 50 20 l50
0 0 -190z m-50 105 c0 -31 -3 -35 -25 -35 -22 0 -25 4 -25 35 0 31 3 35 25 35
22 0 25 -4 25 -35z m-1500 -60 l0 -75 -30 0 -30 0 0 75 0 75 30 0 30 0 0 -75z
m135 0 l0 -70 -32 -3 -33 -3 0 76 0 76 33 -3 32 -3 0 -70z m1363 -23 c3 -30 1
-33 -20 -30 -18 2 -24 10 -26 36 -3 30 -1 33 20 30 18 -2 24 -10 26 -36z m0
-65 c2 -12 -3 -17 -17 -17 -15 0 -21 6 -21 21 0 25 33 22 38 -4z m-1498 -17
c0 -16 -7 -20 -30 -20 -23 0 -30 4 -30 20 0 16 7 20 30 20 23 0 30 -4 30 -20z
m116 -10 c0 -14 -7 -20 -23 -20 -16 0 -23 6 -23 20 0 14 7 20 23 20 16 0 23
-6 23 -20z m362 -85 c26 -3 58 -9 72 -12 l25 -7 -25 -4 c-13 -2 -57 -1 -97 3
-81 7 -123 31 -123 70 0 23 0 23 50 -10 31 -21 68 -36 98 -40z m1020 48 c-2
-20 -9 -29 -25 -31 -20 -3 -23 1 -23 27 0 27 4 31 26 31 22 0 25 -4 22 -27z
m-1332 -30 c18 -13 56 -28 85 -33 30 -4 67 -13 82 -19 76 -29 422 -31 500 -2
46 17 422 -19 529 -51 37 -11 42 -10 58 10 11 14 29 22 47 22 27 -1 27 -1 8
-17 -64 -50 -279 -129 -435 -158 -129 -25 -351 -25 -480 0 -185 35 -370 110
-522 212 -102 68 -101 70 5 65 78 -4 97 -8 123 -29z m1332 -35 c3 -14 -3 -18
-27 -18 -25 0 -31 4 -31 21 0 16 5 20 27 17 17 -2 29 -10 31 -20z"/>
<path d="M2200 3111 c-80 -12 -100 -41 -22 -35 l47 5 -34 -13 c-53 -20 -48
-33 9 -30 45 4 51 1 59 -20 5 -14 5 -28 -1 -35 -5 -7 -8 -22 -6 -35 2 -17 8
-22 23 -20 27 5 29 8 20 29 -5 10 -7 40 -6 66 3 45 -18 99 -37 96 -4 -1 -27
-5 -52 -8z"/>
<path d="M2378 3113 c-59 -6 -44 -23 20 -23 31 0 68 -3 82 -6 l25 -5 -25 14
c-34 19 -58 24 -102 20z"/>
<path d="M2366 3061 c-5 -8 115 -24 123 -16 2 3 -8 9 -23 15 -33 12 -93 13
-100 1z"/>
<path d="M2366 2966 c6 -15 3 -17 -14 -12 -11 4 -23 3 -26 -2 -3 -6 5 -12 19
-14 27 -6 43 18 25 36 -8 8 -9 6 -4 -8z"/>
<path d="M2501 2945 c-17 -20 -31 -43 -31 -53 1 -14 2 -14 12 3 6 11 24 35 41
53 17 17 26 32 20 32 -6 0 -25 -16 -42 -35z"/>
<path d="M2313 2883 c-57 -2 -103 -8 -103 -13 0 -11 192 -1 205 11 5 5 7 8 5
7 -3 -1 -51 -4 -107 -5z"/>
<path d="M2306 2831 c-26 -5 -28 -7 -12 -20 12 -10 22 -11 39 -3 14 7 17 11 7
11 -13 1 -13 2 0 11 16 11 10 11 -34 1z"/>
<path d="M3130 2145 c0 -32 2 -35 30 -35 28 0 30 3 30 35 0 32 -2 35 -30 35
-28 0 -30 -3 -30 -35z m50 5 c0 -13 -7 -20 -20 -20 -13 0 -20 7 -20 20 0 13 7
20 20 20 13 0 20 -7 20 -20z"/>
<path d="M3130 2040 c0 -27 3 -30 30 -30 27 0 30 3 30 30 0 27 -3 30 -30 30
-27 0 -30 -3 -30 -30z m50 0 c0 -13 -7 -20 -20 -20 -13 0 -20 7 -20 20 0 13 7
20 20 20 13 0 20 -7 20 -20z"/>
<path d="M3128 1973 c-7 -14 -3 -68 5 -70 4 -2 18 -3 32 -3 22 0 25 4 25 34 0
22 -6 36 -16 40 -21 8 -42 8 -46 -1z m52 -38 c0 -18 -5 -25 -20 -25 -15 0 -20
7 -20 25 0 18 5 25 20 25 15 0 20 -7 20 -25z"/>
<path d="M3122 1823 c3 -35 6 -38 36 -41 31 -3 32 -2 32 37 0 40 -1 41 -36 41
-35 0 -35 -1 -32 -37z m58 2 c0 -18 -5 -25 -20 -25 -15 0 -20 7 -20 25 0 18 5
25 20 25 15 0 20 -7 20 -25z"/>
<path d="M3122 1713 c3 -35 6 -38 36 -41 31 -3 32 -2 32 37 0 40 -1 41 -36 41
-35 0 -35 -1 -32 -37z m58 2 c0 -18 -5 -25 -20 -25 -15 0 -20 7 -20 25 0 18 5
25 20 25 15 0 20 -7 20 -25z"/>
<path d="M3120 1610 c0 -39 1 -40 35 -40 34 0 35 1 35 40 0 39 -1 40 -35 40
-34 0 -35 -1 -35 -40z m58 2 c3 -17 -2 -22 -17 -22 -16 0 -21 6 -21 26 0 33
33 30 38 -4z"/>
<path d="M3120 1520 c0 -39 1 -40 35 -40 34 0 35 1 35 40 0 39 -1 40 -35 40
-34 0 -35 -1 -35 -40z m58 -3 c3 -22 -1 -27 -17 -27 -17 0 -21 6 -21 31 0 24
4 30 18 27 10 -2 18 -14 20 -31z"/>
<path d="M1094 2036 c-3 -8 -4 -26 -2 -41 3 -26 4 -26 96 -29 l92 -3 0 44 0
43 -90 0 c-69 0 -92 -3 -96 -14z m56 -31 c0 -18 -5 -25 -20 -25 -15 0 -20 7
-20 25 0 18 5 25 20 25 15 0 20 -7 20 -25z m53 6 c6 -24 0 -31 -25 -31 -13 0
-18 7 -18 25 0 31 35 35 43 6z m67 -6 c0 -20 -5 -25 -25 -25 -20 0 -25 5 -25
25 0 20 5 25 25 25 20 0 25 -5 25 -25z"/>
<path d="M1092 1868 l3 -43 93 -3 92 -3 0 46 0 45 -96 0 -95 0 3 -42z m38 -3
c0 -14 -4 -25 -10 -25 -5 0 -10 11 -10 25 0 14 5 25 10 25 6 0 10 -11 10 -25z
m50 0 c0 -18 -5 -25 -20 -25 -15 0 -20 7 -20 25 0 18 5 25 20 25 15 0 20 -7
20 -25z m50 0 c0 -18 -5 -25 -20 -25 -15 0 -20 7 -20 25 0 18 5 25 20 25 15 0
20 -7 20 -25z m40 0 c0 -14 -4 -25 -10 -25 -5 0 -10 11 -10 25 0 14 5 25 10
25 6 0 10 -11 10 -25z"/>
<path d="M3748 3419 c-19 -14 -28 -30 -28 -48 0 -38 -10 -45 -28 -20 -13 19
-15 19 -33 3 -11 -9 -24 -35 -29 -56 -10 -37 -9 -41 42 -112 49 -68 57 -75 96
-81 62 -9 110 22 119 77 5 35 8 39 18 25 17 -23 31 -21 49 5 28 40 20 83 -29
151 -25 34 -53 65 -63 69 -34 13 -87 7 -114 -13z m111 -15 c9 -3 0 -15 -27
-35 -25 -18 -39 -36 -35 -42 3 -7 20 -32 37 -55 36 -51 37 -97 3 -124 -24 -19
-73 -23 -97 -8 -13 8 -12 11 5 24 11 7 31 23 44 33 l25 20 -38 52 c-32 43 -37
56 -31 83 12 57 47 73 114 52z m63 -82 c18 -27 25 -45 21 -65 -3 -15 -9 -27
-14 -27 -13 0 -31 39 -24 51 4 5 0 21 -9 34 -36 54 -12 61 26 7z m-58 -6 c20
-31 3 -44 -18 -14 -9 12 -16 26 -16 30 0 16 18 7 34 -16z m-164 -51 c-9 -10
-7 -20 6 -40 9 -14 14 -28 11 -32 -9 -9 -31 12 -51 49 -14 27 -15 39 -7 62
l11 28 21 -26 c16 -21 18 -30 9 -41z m64 -28 c6 -9 7 -19 3 -23 -9 -9 -37 15
-37 33 0 18 20 12 34 -10z"/>
<path d="M655 3103 c-20 -51 -20 -51 45 -94 24 -15 23 -16 -30 -12 l-55 5 -22
-56 c-20 -54 -20 -56 -3 -56 11 0 31 -12 45 -26 l27 -27 -52 5 -52 5 -19 -41
c-32 -71 -31 -72 74 -80 50 -4 120 -9 154 -13 l63 -6 20 49 21 48 -37 31 -37
31 48 0 c48 -1 49 0 64 39 8 22 19 43 24 46 9 6 -234 199 -251 199 -5 0 -17
-21 -27 -47z m114 -45 c36 -28 71 -56 76 -61 6 -5 -10 -6 -40 -1 -59 8 -139
58 -131 81 3 8 6 19 6 24 0 19 24 7 89 -43z m19 -100 l103 -12 -6 -25 c-4 -14
-8 -28 -10 -30 -5 -4 -265 20 -265 25 0 2 5 15 12 29 13 29 21 30 166 13z m15
-132 c33 -25 35 -29 25 -58 l-11 -30 -101 6 c-56 4 -115 9 -133 12 -30 6 -31
7 -21 35 10 29 12 29 62 24 28 -4 61 -8 73 -11 34 -7 39 17 9 41 l-28 22 44
-7 c25 -3 61 -19 81 -34z"/>
<path d="M3798 3069 l-38 -19 28 -50 c15 -27 32 -50 37 -50 6 0 24 9 42 19
l31 20 -26 50 c-15 28 -29 51 -32 50 -3 0 -22 -9 -42 -20z m50 -44 c15 -32 15
-32 -3 -39 -16 -6 -50 46 -38 58 13 13 30 5 41 -19z"/>
<path d="M3970 2989 c-74 -27 -136 -51 -138 -53 -4 -4 28 -88 39 -100 4 -5 22
-4 40 3 47 16 53 1 18 -43 l-32 -38 16 -56 c9 -31 22 -83 28 -115 8 -47 14
-57 27 -53 9 3 30 8 45 12 23 5 27 11 23 28 -2 11 -8 38 -11 58 -7 35 -9 37
-38 31 l-30 -6 29 36 c20 25 34 35 44 30 21 -10 70 -7 102 5 16 6 36 28 47 51
l21 40 -34 93 c-46 125 -47 128 -55 127 -3 0 -67 -23 -141 -50z m145 -20 c6
-25 3 -27 -110 -68 -64 -24 -119 -41 -121 -39 -2 3 -6 18 -10 34 -5 29 -5 29
108 70 62 22 116 38 120 35 4 -3 9 -18 13 -32z m-24 -95 c11 -31 12 -30 -23
-39 -21 -6 -27 -3 -33 16 -5 16 -2 26 11 36 26 19 33 16 45 -13z m65 -11 c15
-36 15 -40 -3 -72 -19 -37 -59 -57 -96 -47 -14 3 -31 23 -45 51 -25 51 -26 55
-13 55 5 0 14 -14 20 -30 l10 -30 43 16 c58 23 62 28 50 63 -17 47 13 41 34
-6z m-184 -146 c-19 -19 -24 -20 -32 -7 -15 23 -12 51 7 72 17 19 18 19 32
-12 14 -29 13 -32 -7 -53z m32 -118 c4 -21 2 -28 -13 -32 -15 -4 -20 2 -25 26
-4 20 -2 33 6 38 16 10 24 2 32 -32z"/>
<path d="M510 2704 c0 -5 -9 -61 -20 -124 -11 -63 -20 -122 -20 -131 0 -12 26
-19 118 -34 l117 -19 -57 -9 -58 -9 0 -74 0 -74 40 0 c36 0 40 3 40 25 0 14 5
25 10 25 6 0 10 -16 10 -35 l0 -35 -70 0 c-65 0 -70 2 -70 21 0 12 6 27 13 33
9 7 12 28 9 64 -4 49 -6 52 -31 52 -17 0 -38 -11 -54 -28 -25 -26 -27 -34 -27
-113 0 -83 1 -86 33 -117 32 -32 34 -32 129 -32 l97 0 25 33 c24 32 26 41 26
148 0 73 9 163 24 252 l23 137 -21 5 c-12 3 -37 6 -56 8 -33 2 -35 0 -38 -32
-3 -31 -5 -33 -34 -27 -17 3 -37 6 -45 6 -12 0 -13 8 -8 40 6 35 4 40 -12 40
-10 0 -35 3 -55 6 -21 4 -38 3 -38 -2z m73 -32 c10 -15 -6 -63 -18 -58 -8 3
-15 -7 -19 -25 -10 -50 -30 -35 -22 17 3 26 6 53 6 60 0 15 45 20 53 6z m183
-28 c19 -5 20 -9 11 -65 -7 -41 -14 -59 -25 -59 -10 0 -13 8 -10 30 3 20 0 30
-9 30 -14 0 -16 13 -7 48 7 24 9 25 40 16z m-112 -98 l-6 -44 56 -12 c54 -11
56 -12 50 -38 -4 -15 -9 -29 -11 -31 -5 -7 -227 31 -237 40 -5 4 -6 19 -2 34
7 26 8 26 61 20 l54 -7 7 41 c9 59 36 56 28 -3z m-54 14 c0 -11 -7 -20 -15
-20 -8 0 -15 9 -15 20 0 11 7 20 15 20 8 0 15 -9 15 -20z m110 -21 c0 -10 -7
-19 -15 -19 -9 0 -15 9 -15 25 0 18 4 23 15 19 8 -4 15 -15 15 -25z m-160
-214 c0 -24 -5 -35 -15 -35 -10 0 -15 -11 -15 -35 0 -24 -5 -35 -15 -35 -25 0
-20 88 7 117 30 32 38 29 38 -12z m190 5 c0 -29 -1 -30 -50 -30 -43 0 -50 -3
-50 -20 0 -11 -4 -20 -10 -20 -5 0 -10 23 -10 50 l0 50 60 0 60 0 0 -30z m0
-122 c0 -79 -23 -98 -119 -98 -68 0 -78 3 -103 27 -15 15 -28 30 -28 35 0 4
51 9 113 10 l112 3 3 38 c5 56 22 45 22 -15z"/>
<path d="M4055 2533 c-16 -3 -44 -18 -62 -35 l-32 -31 6 -86 c5 -84 6 -87 42
-118 36 -31 37 -31 121 -26 81 5 86 6 119 40 l34 36 -6 86 c-6 82 -8 87 -39
114 -28 23 -40 27 -93 26 -33 -1 -73 -4 -90 -6z m163 -35 c28 -32 40 -78 18
-78 -9 0 -16 7 -16 16 0 15 -9 16 -61 10 -34 -3 -79 -6 -100 -6 -32 0 -39 -3
-39 -20 0 -11 -7 -20 -15 -20 -26 0 -18 53 13 83 22 21 39 27 87 30 33 2 67 4
76 5 8 1 25 -8 37 -20z m-28 -108 c0 -29 -1 -30 -50 -32 -27 -1 -58 -2 -67 -2
-12 -1 -19 8 -21 26 -4 30 8 34 91 37 46 1 47 0 47 -29z m60 -43 c0 -52 -31
-74 -117 -82 -64 -7 -75 -5 -102 14 -23 16 -31 30 -31 52 0 19 5 29 15 29 8 0
15 -8 15 -18 0 -16 8 -17 83 -10 45 3 88 7 95 7 6 1 12 10 12 21 0 11 7 20 15
20 10 0 15 -10 15 -33z"/>
<path d="M3970 2161 l0 -59 44 -3 44 -4 7 54 c8 62 1 71 -57 71 l-38 0 0 -59z
m68 -3 c-2 -22 -9 -34 -20 -36 -15 -3 -18 4 -18 32 0 30 4 36 21 36 17 0 20
-5 17 -32z"/>
<path d="M703 1801 c-26 -21 -81 -72 -121 -112 -189 -192 -197 -202 -190 -250
4 -24 -5 -38 -59 -91 -57 -56 -77 -88 -55 -88 4 0 37 29 72 65 51 51 69 64 85
58 49 -16 99 0 157 51 29 25 57 46 62 46 5 0 18 -8 28 -17 15 -14 23 -15 37
-6 16 10 27 4 75 -38 48 -43 56 -56 56 -85 0 -45 25 -94 48 -94 22 0 172 150
172 172 0 9 -21 34 -47 55 -25 21 -80 70 -121 109 l-76 72 27 32 c15 17 27 41
27 52 0 27 -81 108 -108 108 -11 0 -42 -17 -69 -39z m118 -20 c36 -36 37 -60
4 -99 -14 -17 -25 -34 -25 -40 0 -5 34 -42 75 -80 l75 -70 -33 -34 c-17 -18
-37 -42 -43 -53 -10 -18 -15 -15 -75 41 -92 86 -96 89 -114 74 -12 -10 -23 -5
-63 29 -80 66 -80 67 -41 108 67 70 170 153 190 153 11 0 34 -13 50 -29z
m-281 -237 c0 -9 9 -18 20 -21 11 -3 20 -12 20 -19 0 -8 7 -14 17 -14 14 0 14
-2 -3 -21 l-18 -20 -42 48 c-23 26 -40 51 -37 56 8 14 43 7 43 -9z m-38 -46
c40 -46 50 -65 37 -73 -20 -13 -97 74 -84 95 9 15 15 13 47 -22z m213 -8 c3
-5 -1 -10 -9 -10 -9 0 -16 5 -16 10 0 6 4 10 9 10 6 0 13 -4 16 -10z m-249
-45 c38 -50 23 -55 -16 -5 -17 22 -27 40 -21 40 5 0 22 -16 37 -35z m526 19
c8 -7 -41 -94 -78 -139 -30 -35 -32 -36 -39 -16 -10 33 40 126 80 149 23 13
29 14 37 6z m45 -45 c9 -9 9 -15 -1 -23 -7 -6 -41 -38 -76 -71 -46 -43 -54
-48 -27 -18 20 23 45 60 57 83 22 42 29 47 47 29z"/>
<path d="M781 1765 c23 -38 35 -41 24 -6 -3 12 -15 26 -25 31 -19 10 -18 8 1
-25z"/>
<path d="M730 1774 c0 -5 12 -27 25 -49 23 -37 25 -38 25 -14 0 14 -11 36 -25
49 -14 13 -25 19 -25 14z"/>
<path d="M659 1702 c-40 -37 -41 -38 -30 -79 13 -48 34 -60 67 -38 41 27 47
50 24 96 -12 22 -19 44 -16 47 3 3 14 -13 24 -36 17 -43 32 -54 32 -27 0 27
-30 75 -46 75 -8 0 -33 -17 -55 -38z m41 -32 c13 -25 5 -56 -17 -64 -29 -12
-46 47 -21 72 17 17 26 15 38 -8z"/>
<path d="M719 1581 c-19 -16 -22 -22 -11 -32 10 -11 17 -10 40 3 15 9 27 23
27 30 0 21 -30 20 -56 -1z"/>
<path d="M3861 1810 c-14 -9 -31 -48 -31 -72 0 -35 34 -56 220 -138 159 -69
167 -72 210 -62 25 6 46 9 47 8 1 -1 -3 -19 -9 -40 -18 -57 -46 -71 -115 -57
-31 6 -85 11 -119 11 -56 0 -65 -3 -83 -26 -12 -15 -21 -33 -21 -41 0 -7 -11
-19 -25 -25 -47 -21 -138 -256 -115 -298 13 -25 61 -27 82 -2 26 31 79 222 76
279 -4 93 28 107 195 81 72 -11 79 -10 105 9 30 22 58 103 46 131 -4 9 -6 26
-6 37 3 38 -34 63 -208 139 -164 72 -218 87 -249 66z m231 -81 c90 -39 168
-76 175 -81 14 -12 -6 -77 -29 -91 -17 -11 -347 129 -356 151 -8 21 17 92 33
92 8 0 87 -32 177 -71z m-231 20 c-5 -13 -10 -19 -10 -12 -1 15 10 45 15 40 3
-2 0 -15 -5 -28z m430 -166 c-12 -20 -14 -14 -5 12 4 9 9 14 11 11 3 -2 0 -13
-6 -23z m-334 -278 c-4 -25 -21 -88 -38 -140 -28 -84 -34 -95 -55 -95 -15 0
-24 6 -24 16 0 12 3 14 13 6 17 -14 42 2 34 22 -7 18 -37 22 -37 4 0 -6 -3 -9
-6 -5 -14 13 65 213 90 229 23 16 29 7 23 -37z"/>
<path d="M3555 1277 c-27 -15 -49 -39 -68 -75 -35 -65 -27 -82 17 -34 34 36
34 37 55 18 16 -15 20 -27 16 -50 -3 -17 -10 -76 -15 -131 -8 -85 -36 -334
-54 -482 -5 -35 -2 -46 16 -63 27 -25 70 -26 91 -2 15 16 17 46 17 213 0 107
-4 199 -8 205 -5 5 -4 70 2 144 9 110 15 139 31 158 22 25 55 29 55 6 0 -11 8
-14 32 -12 26 2 33 9 40 33 4 17 5 37 2 47 -6 21 -54 34 -65 17 -5 -9 -16 -6
-42 10 -44 27 -72 26 -122 -2z m98 -12 c8 -7 26 -17 41 -21 35 -8 33 -24 -2
-24 -31 0 -77 -41 -85 -75 -4 -15 -5 -14 -6 7 0 15 -6 30 -12 33 -5 4 -15 18
-20 32 -8 21 -12 23 -24 13 -11 -9 -15 -9 -15 -1 0 12 74 50 97 51 6 0 18 -7
26 -15z m108 -28 c-1 -4 -1 -16 -1 -27 0 -11 -6 -20 -13 -20 -9 0 -12 10 -9
30 2 17 9 29 14 28 5 -2 9 -7 9 -11z m-151 -142 c0 -8 -4 -15 -10 -15 -5 0
-10 7 -10 15 0 8 5 15 10 15 6 0 10 -7 10 -15z m-10 -105 c0 -27 -4 -50 -10
-50 -11 0 -14 83 -3 93 12 12 13 8 13 -43z m8 -314 c3 -194 -1 -216 -38 -216
-9 0 -24 8 -32 18 -13 15 -12 39 7 202 12 102 23 186 24 188 0 2 9 2 19 0 15
-3 17 -21 20 -192z"/>
<path d="M1117 1204 c-3 -4 5 -20 18 -36 48 -57 21 -81 -30 -28 -16 17 -32 30
-36 30 -14 0 -15 -49 -2 -81 12 -29 11 -34 -5 -53 -14 -16 -22 -49 -30 -130
-7 -60 -17 -115 -22 -122 -7 -8 -8 -34 -3 -76 5 -34 5 -85 1 -113 -19 -136
-21 -175 -8 -205 18 -42 49 -59 67 -34 12 16 13 16 13 -9 0 -23 4 -27 29 -27
33 0 58 20 72 57 5 13 9 87 9 163 0 87 5 149 12 165 9 21 9 31 0 46 -8 12 -12
66 -12 150 l0 131 30 35 c17 18 30 40 30 47 0 15 -74 86 -89 86 -5 0 -16 2
-23 5 -8 3 -17 3 -21 -1z m77 -66 c-4 -6 -10 -5 -15 3 -14 22 -10 33 6 19 8
-7 12 -17 9 -22z m-65 -72 c-12 -13 -49 26 -49 52 0 11 8 8 30 -13 21 -21 27
-32 19 -39z m95 40 c-3 -8 -12 -12 -20 -9 -17 6 -9 23 11 23 8 0 12 -6 9 -14z
m-54 -196 c0 -77 -4 -140 -9 -140 -4 0 -11 46 -15 103 -4 56 -9 116 -12 134
-5 25 -2 32 13 36 10 3 19 5 21 6 1 0 2 -62 2 -139z m-70 121 c0 -5 -7 -12
-16 -15 -14 -5 -15 -4 -4 9 14 17 20 19 20 6z m-3 -43 c-14 -7 -17 -25 -17
-93 0 -50 -4 -87 -11 -91 -22 -13 -26 13 -16 102 9 89 10 92 35 92 21 0 22 -2
9 -10z m27 -227 l-7 -26 -7 25 c-10 33 -12 183 -3 207 10 24 26 -173 17 -206z
m-39 6 c7 -17 -22 -327 -31 -335 -4 -4 -3 31 2 78 11 112 11 231 0 253 -6 12
-4 17 8 17 9 0 19 -6 21 -13z m-38 -110 c-4 -40 -9 -105 -13 -144 -5 -50 -3
-82 6 -103 13 -32 6 -55 -11 -30 -19 31 -21 65 -8 149 15 101 17 140 5 201 -8
44 -7 45 9 22 14 -20 16 -37 12 -95z m113 91 c0 -2 -7 -21 -15 -43 -12 -35
-14 -36 -15 -13 0 32 9 58 21 58 5 0 9 -1 9 -2z m21 -46 c-6 -12 -11 -78 -11
-156 0 -160 -13 -205 -58 -206 -8 0 -5 10 9 30 20 26 23 48 30 173 6 127 20
199 36 184 2 -3 0 -14 -6 -25z m-54 -144 c-2 -18 -4 -6 -4 27 0 33 2 48 4 33
2 -15 2 -42 0 -60z m-30 -10 c-3 -7 -5 -2 -5 12 0 14 2 19 5 13 2 -7 2 -19 0
-25z m29 -102 c-10 -67 -22 -63 -18 6 3 41 7 57 14 50 6 -6 8 -29 4 -56z"/>
<path d="M3315 902 c-39 -9 -69 -38 -91 -89 -20 -45 -34 -60 -86 -93 -71 -45
-83 -48 -98 -21 -12 23 -71 61 -94 61 -9 0 -24 -9 -33 -20 -10 -11 -26 -20
-36 -20 -32 0 -74 -28 -87 -60 -7 -16 -34 -46 -61 -66 -55 -40 -75 -90 -65
-156 7 -44 -11 -61 -84 -77 -49 -11 -90 -49 -90 -82 0 -50 49 -99 100 -99 19
0 70 53 70 74 0 6 22 29 49 49 39 30 55 36 75 31 17 -4 35 0 51 10 14 9 30 14
35 11 14 -9 59 16 65 37 4 11 16 18 32 18 15 0 35 7 45 16 12 12 22 14 30 7
42 -33 121 -7 126 40 3 22 -5 36 -34 63 -24 21 -34 38 -28 43 5 5 43 28 84 50
54 30 87 41 118 41 49 0 86 17 120 53 26 28 27 74 2 69 -58 -14 -77 -13 -83 2
-9 24 2 45 34 62 31 15 38 32 17 38 -30 9 -64 13 -83 8z m27 -38 c-29 -20 -30
-74 -1 -100 l20 -18 -21 -8 c-25 -9 -59 3 -83 29 -14 16 -15 26 -8 45 13 34
58 68 90 68 l25 0 -22 -16z m67 -130 c-20 -25 -72 -44 -118 -44 -27 0 -63 -13
-116 -41 -62 -34 -79 -39 -86 -28 -16 25 -9 34 67 82 l76 47 25 -20 c34 -27
82 -25 124 3 38 26 49 26 28 1z m-408 -31 c31 -26 79 -113 79 -143 0 -8 -11
-28 -24 -44 l-23 -30 -25 40 c-14 21 -30 56 -37 77 -13 38 -31 50 -31 20 0
-23 33 -96 60 -133 l20 -28 -25 -16 c-13 -9 -29 -16 -34 -16 -18 0 -62 63 -73
106 -7 24 -16 44 -21 44 -18 0 2 -82 29 -122 30 -43 26 -70 -13 -76 -25 -4
-77 56 -94 105 -11 34 -29 45 -29 18 0 -19 26 -71 51 -104 10 -13 16 -27 13
-32 -11 -18 -41 -8 -62 20 -12 16 -32 31 -44 33 -20 3 -23 10 -26 52 -4 54 6
70 76 118 24 17 42 37 42 48 0 24 37 50 72 50 17 0 31 7 38 20 15 27 42 25 81
-7z m140 -215 c6 -12 6 -18 -1 -18 -5 0 -10 7 -10 16 0 9 -9 18 -20 21 -11 3
-17 9 -14 15 7 11 31 -7 45 -34z m-31 -22 c0 -8 -4 -17 -9 -21 -12 -7 -24 12
-16 25 9 15 25 12 25 -4z m-379 -76 c10 -6 19 -14 19 -19 0 -15 -108 -84 -123
-78 -19 7 -29 47 -13 47 7 0 31 13 52 29 46 35 41 33 65 21z m-196 -110 c3 -5
-1 -10 -10 -10 -9 0 -13 5 -10 10 3 6 8 10 10 10 2 0 7 -4 10 -10z m85 -50
c-16 -31 -23 -19 -9 16 6 16 13 24 16 17 2 -7 -1 -22 -7 -33z"/>
<path d="M1641 775 c-16 -14 -35 -41 -41 -59 l-11 -34 -78 5 c-75 5 -79 5
-108 -23 -35 -33 -63 -99 -63 -149 0 -30 5 -37 38 -54 20 -10 64 -26 97 -36
91 -25 239 -101 293 -150 l48 -43 38 21 c37 21 39 21 50 3 29 -49 58 -76 71
-66 9 7 25 3 56 -14 64 -35 100 -40 164 -21 108 31 162 108 169 241 4 74 2 82
-26 126 -33 53 -103 104 -155 114 -19 4 -58 4 -86 1 -51 -6 -52 -6 -67 26 -14
31 -18 32 -75 33 -52 1 -73 8 -158 52 -53 29 -104 52 -111 52 -8 0 -28 -11
-45 -25z m180 -63 l105 -57 -19 -33 -19 -33 -32 19 c-17 10 -41 25 -53 32 -19
12 -24 12 -41 -3 -21 -19 -51 -21 -104 -7 -45 13 -51 22 -43 60 10 45 42 80
73 80 15 0 75 -26 133 -58z m194 -66 c8 -25 6 -30 -20 -49 -17 -12 -42 -34
-57 -49 -38 -41 -50 -36 -32 15 21 58 64 118 83 115 9 -2 20 -16 26 -32z
m-427 1 c47 -42 157 -62 182 -33 10 13 19 10 61 -15 27 -17 49 -34 49 -38 0
-4 -6 -29 -14 -55 -8 -26 -18 -77 -22 -113 l-7 -65 -31 6 c-82 16 -119 27
-216 69 -58 24 -132 53 -165 64 -52 17 -60 23 -63 47 -4 34 22 103 51 135 20
21 28 23 90 18 42 -3 74 -10 85 -20z m617 -41 c39 -17 105 -64 105 -76 0 -4
-26 -11 -57 -15 -70 -9 -124 -29 -182 -68 -36 -25 -43 -27 -37 -11 5 10 10 51
13 89 4 47 10 74 21 83 21 16 95 15 137 -2z m-179 -110 c-11 -73 -99 -197
-122 -173 -4 3 -7 28 -7 55 -1 66 42 154 91 187 l37 25 3 -27 c2 -15 1 -45 -2
-67z m-141 -46 c-8 -27 -14 -36 -14 -23 -1 24 17 78 24 71 2 -2 -2 -24 -10
-48z m454 31 c9 -17 5 -19 -59 -24 -78 -6 -151 -35 -194 -75 -16 -15 -50 -60
-76 -99 -40 -60 -50 -70 -60 -58 -9 11 -5 27 21 75 52 97 147 169 250 189 75
15 107 13 118 -8z m1 -98 c0 -105 -55 -179 -153 -208 -47 -14 -56 -14 -104 1
-29 9 -59 24 -68 34 -15 17 -14 22 15 69 18 28 35 51 38 51 4 -1 18 -7 32 -15
62 -36 126 3 124 75 -2 43 4 46 79 49 l37 1 0 -57z m-139 20 c3 -48 -20 -83
-56 -83 -29 0 -60 24 -50 39 5 9 10 10 18 2 17 -17 45 -13 56 8 6 10 8 21 5
24 -8 7 5 27 17 27 5 0 10 -8 10 -17z m-319 -78 c2 -24 -3 -32 -30 -48 l-32
-19 -34 30 -34 30 52 -2 51 -1 4 40 c2 33 5 36 11 19 5 -11 10 -34 12 -49z
m268 55 c0 -5 -4 -10 -10 -10 -5 0 -10 5 -10 10 0 6 5 10 10 10 6 0 10 -4 10
-10z m-210 -91 c-7 -11 -14 -18 -17 -15 -8 8 5 36 17 36 7 0 7 -6 0 -21z"/>
<path d="M1410 603 c-11 -20 -24 -48 -27 -63 -5 -25 -1 -29 43 -44 74 -25 81
-23 109 40 14 31 25 60 25 63 0 9 -89 41 -112 41 -9 0 -26 -16 -38 -37z m81 5
c44 -13 46 -22 22 -73 -14 -30 -21 -35 -40 -30 -38 9 -73 24 -73 31 0 9 43 84
48 84 3 0 22 -5 43 -12z"/>
</g>
</svg>
